<svg width="229" height="19" viewBox="0 0 229 19" fill="none" xmlns="http://www.w3.org/2000/svg">
<g clip-path="url(#clip0_14_11685)">
<path d="M173.347 5.03721C162.557 5.07255 143.223 5.51441 143.118 5.44372C134.73 -0.760004 123.784 -0.512562 119.782 0.706973C117.171 1.50232 115.518 2.70418 114.509 3.71162C113.499 2.68651 111.846 1.50232 109.236 0.706973C105.233 -0.512562 94.2869 -0.760004 85.8989 5.44372C85.7944 5.53209 66.4602 5.09023 55.6706 5.03721C30.0715 4.94883 0.0173264 5.81488 0.0173264 6.0093C0.0173264 6.20372 29.7931 6.94604 55.3922 6.85767C67.1563 6.82232 85.9685 7.03442 86.4731 6.06232C89.1009 4.43628 92.9295 2.36837 95.1048 1.89116C107.408 -0.830701 111.742 3.21674 113.412 5.14325C111.585 8.2893 112.264 11.5767 113.186 13.026C113.221 13.0791 113.273 13.1144 113.308 13.1674C111.655 14.5814 108.574 15.8363 105.407 12.6726C103.301 9.0493 105.842 6.16837 107.704 6.27442C110.332 6.41581 110.088 8.2186 110.036 8.80186C109.984 9.36744 109.653 9.8093 109.062 10.1098C108.627 10.3395 108.017 10.9935 108.244 11.453C108.748 12.4958 109.914 12.1777 110.349 11.9479C111.498 11.3823 111.95 10.1451 111.811 8.96093C111.672 7.61767 111.133 4.27721 106.973 5.16093C105.807 5.40837 102.483 7.15814 103.963 12.1953C103.214 11.7712 100.656 10.2512 100.152 9.96837C98.7071 9.03162 98.2547 8.20093 97.837 7.14046C97.5238 6.36279 97.8718 5.19628 98.5157 4.91348C98.916 4.73674 99.525 4.86046 99.7687 5.1786C100.03 5.49674 99.7687 6.0093 99.5424 6.38046C98.9682 7.26418 100.343 8.41302 101.37 7.3879C102.675 6.08 101.892 4.4186 101.248 3.87069C100.482 3.23442 98.7941 2.81023 97.5934 3.83535C96.8973 4.43628 95.6269 6.50418 98.2373 9.24372C96.6536 8.07721 93.8692 7.54697 92.1116 8.00651C89.6926 8.62511 87.9698 10.3926 87.8479 12.9377C87.7087 15.8893 89.797 17.7981 90.8412 18.4344C92.2334 19.2828 94.5827 19.1767 95.6617 18.3637C97.9414 16.6493 97.924 12.0009 94.4087 11.8772C93.2949 11.8419 92.0246 12.6195 91.6765 13.5209C91.1022 15.0233 92.1116 15.4651 92.5292 15.5535C94.1651 15.8716 94.0258 13.5563 95.2788 14.6521C95.9227 15.2177 95.4528 16.5256 94.7045 17.1265C93.9736 17.7098 92.8077 17.8512 91.7461 17.4623C90.0581 16.8614 88.8399 15.0233 88.9095 13.2028C88.9965 11.3823 90.3713 9.6679 92.1116 9.20837C93.1731 8.94325 94.9656 8.80186 96.3404 9.34976C99.525 10.6046 104.815 14.5991 106.747 15.3414C107.2 15.6065 107.652 15.7833 108.052 15.8893C108.783 16.1014 109.514 16.1898 110.228 16.1898C111.829 16.1721 113.325 15.5888 114.509 14.5637C115.692 15.5888 117.189 16.1721 118.79 16.1898C119.503 16.1898 120.234 16.1014 120.965 15.8893C121.365 15.7833 121.818 15.5888 122.27 15.3414C124.184 14.5991 129.492 10.6046 132.677 9.34976C134.052 8.80186 135.844 8.94325 136.906 9.20837C138.646 9.65023 140.021 11.3646 140.108 13.2028C140.195 15.0233 138.977 16.8614 137.271 17.4623C136.21 17.8335 135.061 17.7098 134.313 17.1265C133.564 16.5256 133.112 15.2 133.738 14.6521C134.991 13.5563 134.835 15.8716 136.488 15.5535C136.906 15.4651 137.915 15.0233 137.341 13.5209C136.993 12.6195 135.722 11.8419 134.609 11.8772C131.093 12.0009 131.076 16.667 133.356 18.3637C134.435 19.1767 136.784 19.2828 138.176 18.4344C139.22 17.7981 141.309 15.8893 141.169 12.9377C141.047 10.3926 139.325 8.62511 136.906 8.00651C135.165 7.56465 132.381 8.07721 130.78 9.24372C133.39 6.50418 132.137 4.43628 131.424 3.83535C130.223 2.8279 128.535 3.23442 127.769 3.87069C127.108 4.4186 126.342 6.09767 127.648 7.3879C128.674 8.41302 130.049 7.26418 129.475 6.38046C129.231 6.0093 128.988 5.49674 129.249 5.1786C129.492 4.87814 130.101 4.75442 130.502 4.91348C131.145 5.19628 131.493 6.36279 131.18 7.14046C130.745 8.20093 130.293 9.03162 128.866 9.96837C128.361 10.2688 125.803 11.7712 125.055 12.1953C126.534 7.15814 123.21 5.40837 122.044 5.16093C117.867 4.27721 117.345 7.63535 117.206 8.96093C117.084 10.1451 117.537 11.3823 118.668 11.9479C119.103 12.1777 120.269 12.4781 120.774 11.453C120.982 11.0112 120.391 10.3395 119.956 10.1098C119.364 9.8093 119.033 9.36744 118.981 8.80186C118.929 8.20093 118.685 6.41581 121.313 6.27442C123.175 6.16837 125.716 9.0493 123.61 12.6726C120.46 15.8363 117.363 14.5814 115.709 13.1674C115.744 13.1144 115.796 13.0791 115.831 13.026C116.736 11.5767 117.432 8.2893 115.605 5.14325C117.276 3.21674 121.609 -0.830701 133.912 1.89116C136.088 2.36837 139.916 4.43628 142.544 6.06232C143.049 7.03442 161.878 6.80465 173.625 6.85767C199.207 6.94604 229 6.22139 229 6.0093C229 5.79721 198.946 4.93116 173.347 5.03721ZM114.491 11.7005C113.691 10.1628 113.691 8.37767 114.491 6.75162C115.292 8.36 115.292 10.1628 114.491 11.7005Z" fill="#25304C"/>
</g>
<defs>
<clipPath id="clip0_14_11685">
<rect width="229" height="19" fill="white"/>
</clipPath>
</defs>
</svg>
