<svg width="18" height="17" viewBox="0 0 18 17" fill="none" xmlns="http://www.w3.org/2000/svg">
<path fill-rule="evenodd" clip-rule="evenodd" d="M8.22278 0C12.487 0 15.9439 3.42502 15.9439 7.65C15.9439 9.45606 15.3122 11.1159 14.2558 12.4246L17.4084 15.549C17.7434 15.8809 17.7434 16.4191 17.4084 16.751C17.0991 17.0575 16.6125 17.081 16.2759 16.8218L16.1951 16.751L13.0417 13.6275C11.7209 14.6741 10.0456 15.3 8.22278 15.3C3.95855 15.3 0.501709 11.875 0.501709 7.65C0.501709 3.42502 3.95855 0 8.22278 0ZM8.22279 1.70007C4.90617 1.70007 2.21751 4.36398 2.21751 7.65007C2.21751 10.9362 4.90617 13.6001 8.22279 13.6001C11.5394 13.6001 14.2281 10.9362 14.2281 7.65007C14.2281 4.36398 11.5394 1.70007 8.22279 1.70007Z" fill="#16376E"/>
</svg>
