<svg width="420" height="7" viewBox="0 0 420 7" fill="none" xmlns="http://www.w3.org/2000/svg">
<path d="M0.333333 3.5C0.333333 4.97276 1.52724 6.16667 3 6.16667C4.47276 6.16667 5.66667 4.97276 5.66667 3.5C5.66667 2.02724 4.47276 0.833333 3 0.833333C1.52724 0.833333 0.333333 2.02724 0.333333 3.5ZM413.833 3.5C413.833 4.97276 415.027 6.16667 416.5 6.16667C417.973 6.16667 419.167 4.97276 419.167 3.5C419.167 2.02724 417.973 0.833333 416.5 0.833333C415.027 0.833333 413.833 2.02724 413.833 3.5ZM3 4H416.5V3H3V4Z" fill="#D1D1D6"/>
</svg>
