<svg width="22" height="26" viewBox="0 0 22 26" fill="none" xmlns="http://www.w3.org/2000/svg">
<path fill-rule="evenodd" clip-rule="evenodd" d="M10.8841 0C4.88223 0 0 4.8174 0 10.7805C0 14.4892 2.1628 18.1496 4.45496 20.8141C5.61492 22.1624 6.84608 23.3008 7.93205 24.1103C8.47416 24.5145 8.9952 24.848 9.46552 25.0848C9.90642 25.3069 10.4099 25.5 10.8841 25.5C11.3584 25.5 11.8619 25.3069 12.3028 25.0848C12.7731 24.848 13.2941 24.5145 13.8362 24.1103C14.9222 23.3008 16.1534 22.1624 17.3133 20.8141C19.6055 18.1496 21.7683 14.4892 21.7683 10.7805C21.7683 4.8174 16.8861 0 10.8841 0Z" fill="#25304C"/>
<circle cx="3.73171" cy="3.73171" r="3.73171" transform="matrix(-1 0 0 1 14.6159 6.53076)" fill="white"/>
</svg>
