<svg width="31" height="30" viewBox="0 0 31 30" fill="none" xmlns="http://www.w3.org/2000/svg">
<path fill-rule="evenodd" clip-rule="evenodd" d="M2.14723 7.26459C1.74106 7.18335 1.34594 7.44677 1.26471 7.85294C1.18348 8.25911 1.44689 8.65422 1.85306 8.73546L2.90242 8.94533C3.44117 9.05308 3.8464 9.49998 3.90107 10.0467L4.0546 11.582L5.04408 19.8277C5.20994 21.2098 6.38244 22.25 7.77449 22.25H16.7674C18.7176 22.25 20.4175 20.9228 20.8905 19.0308L22.0133 14.5398C22.4945 12.6148 21.0386 10.75 19.0544 10.75H5.47889L5.39362 9.89742C5.27335 8.6947 4.38184 7.71151 3.19659 7.47446L2.14723 7.26459Z" fill="#25304C"/>
<path d="M13.5417 19.0624H9.375" stroke="#25304C" stroke-width="1.5" stroke-linecap="round" stroke-linejoin="round"/>
<circle cx="8.5" cy="25" r="1.5" fill="#25304C"/>
<circle cx="17.5" cy="25" r="1.5" fill="#25304C"/>
<circle cx="23.5" cy="7.5" r="7.5" fill="#25304C"/>
<path fill-rule="evenodd" clip-rule="evenodd" d="M20.1821 7.59211C20.1821 7.48039 20.2265 7.37327 20.3055 7.29427C20.3845 7.21527 20.4917 7.17086 20.6034 7.17079L23.1631 7.17079L23.1631 4.61109C23.1611 4.55449 23.1705 4.49809 23.1908 4.44523C23.2111 4.39237 23.2418 4.34414 23.2811 4.30341C23.3204 4.26268 23.3675 4.2303 23.4196 4.20817C23.4718 4.18603 23.5278 4.17464 23.5844 4.17465C23.641 4.17462 23.6971 4.18604 23.7492 4.20817C23.8013 4.23031 23.8484 4.26267 23.8877 4.30341C23.927 4.34416 23.9578 4.39238 23.978 4.44524C23.9983 4.4981 24.0077 4.5545 24.0057 4.61109L24.0057 7.17079L26.5654 7.17079C26.622 7.1688 26.6784 7.17822 26.7313 7.1985C26.7841 7.21877 26.8324 7.24949 26.8731 7.2888C26.9138 7.32811 26.9462 7.37525 26.9683 7.42736C26.9905 7.47947 27.0019 7.53547 27.0018 7.59211C27.0019 7.64875 26.9905 7.70475 26.9683 7.75686C26.9462 7.80897 26.9138 7.85611 26.8731 7.89542C26.8324 7.93473 26.7841 7.96545 26.7313 7.98572C26.6784 8.006 26.622 8.01541 26.5654 8.01343L24.0057 8.01343L24.0057 10.5731C24.0019 10.6823 23.9558 10.7857 23.8772 10.8616C23.7986 10.9374 23.6936 10.9798 23.5844 10.9798C23.4752 10.9798 23.3702 10.9374 23.2916 10.8616C23.213 10.7857 23.1669 10.6823 23.1631 10.5731L23.1631 8.01343L20.6034 8.01343C20.4917 8.01336 20.3845 7.96895 20.3055 7.88995C20.2265 7.81095 20.1821 7.70383 20.1821 7.59211Z" fill="white"/>
</svg>
