<svg width="22" height="24" viewBox="0 0 22 24" fill="none" xmlns="http://www.w3.org/2000/svg">
<path fill-rule="evenodd" clip-rule="evenodd" d="M16.146 1.23007L16.1472 2.10463C19.3609 2.3565 21.4839 4.5464 21.4873 7.90472L21.5 17.7348C21.5046 21.3963 19.2043 23.6492 15.5171 23.655L6.51054 23.6667C2.8464 23.6713 0.517293 21.3648 0.512685 17.6928L0.500014 7.97819C0.495407 4.59771 2.54345 2.41364 5.75721 2.11862L5.75605 1.24406C5.7549 0.730983 6.13502 0.345009 6.64185 0.345009C7.14868 0.343843 7.5288 0.72865 7.52995 1.24173L7.53111 2.05798L14.3733 2.04866L14.3721 1.2324C14.371 0.719322 14.7511 0.334514 15.2579 0.333348C15.7532 0.332182 16.1449 0.71699 16.146 1.23007ZM2.27507 8.33851L19.7146 8.31518V7.90706C19.665 5.39998 18.4072 4.08464 16.1495 3.88873L16.1506 4.78662C16.1506 5.28803 15.7602 5.68567 15.2648 5.68567C14.758 5.68683 14.3767 5.29037 14.3767 4.78895L14.3756 3.84442L7.53341 3.85375L7.53456 4.79711C7.53456 5.2997 7.15559 5.69616 6.64876 5.69616C6.14194 5.69733 5.76066 5.30203 5.76066 4.79945L5.75951 3.90156C3.51334 4.12662 2.27046 5.44662 2.27391 7.97585L2.27507 8.33851ZM14.7799 13.6384V13.6512C14.7914 14.1876 15.2291 14.5945 15.7602 14.5829C16.2785 14.5701 16.692 14.1258 16.6805 13.5894C16.6563 13.0763 16.2405 12.6577 15.7233 12.6588C15.1934 12.6705 14.7788 13.102 14.7799 13.6384ZM15.7314 18.8741C15.2015 18.8624 14.7741 18.4205 14.773 17.8841C14.7615 17.3477 15.1865 16.9034 15.7164 16.8906H15.7279C16.2693 16.8906 16.7082 17.3325 16.7082 17.8806C16.7093 18.4286 16.2716 18.8729 15.7314 18.8741ZM10.0341 13.657C10.0572 14.1934 10.496 14.612 11.0259 14.5887C11.5443 14.5642 11.9578 14.1211 11.9348 13.5847C11.9221 13.06 11.4959 12.6518 10.9775 12.653C10.4477 12.6763 10.033 13.1206 10.0341 13.657ZM11.0305 18.8216C10.5007 18.8449 10.0629 18.4263 10.0388 17.8899C10.0388 17.3535 10.4523 16.9104 10.9821 16.8859C11.5005 16.8847 11.9278 17.2929 11.9394 17.8164C11.9635 18.354 11.5489 18.7971 11.0305 18.8216ZM5.28839 13.6978C5.31143 14.2342 5.7503 14.654 6.28016 14.6295C6.79851 14.6062 7.21204 14.1619 7.18785 13.6255C7.17633 13.1008 6.75013 12.6927 6.23063 12.6938C5.70077 12.7171 5.28724 13.1614 5.28839 13.6978ZM6.28477 18.8274C5.7549 18.8519 5.31719 18.4321 5.293 17.8957C5.29185 17.3593 5.70652 16.915 6.23639 16.8917C6.75474 16.8906 7.18209 17.2987 7.1936 17.8234C7.21779 18.3598 6.80427 18.8041 6.28477 18.8274Z" fill="#25304C"/>
</svg>
