<svg width="1056" height="63" viewBox="0 0 1056 63" fill="none" xmlns="http://www.w3.org/2000/svg">
<path d="M377.336 32.4702H27.4347C27.4347 32.4702 25.6357 31.6268 25.6357 30.7834C25.6357 29.9401 26.5352 29.0967 27.4347 29.0967H377.336C377.336 29.0967 379.135 29.9401 379.135 30.7834C379.135 31.6268 378.235 32.4702 377.336 32.4702Z" fill="#EAEDF3"/>
<path d="M21.1379 30.7834C21.1379 30.7834 19.3389 34.5787 17.0902 34.5787C14.8415 34.5787 13.0425 32.8919 13.0425 30.7834C13.0425 28.675 14.8415 26.9882 17.0902 26.9882C19.3389 26.9882 21.1379 28.675 21.1379 30.7834Z" fill="#EAEDF3"/>
<path d="M10.7939 30.7834C10.7939 33.7353 8.0954 35.8437 5.39693 35.8437C2.69847 35.8437 0 33.3136 0 30.7834C0 28.2533 2.69847 25.7231 5.39693 25.7231C8.0954 25.7231 10.7939 28.2533 10.7939 30.7834Z" fill="#EAEDF3"/>
<path d="M387.23 34.5787C389.465 34.5787 391.278 32.8795 391.278 30.7834C391.278 28.6874 389.465 26.9882 387.23 26.9882C384.994 26.9882 383.182 28.6874 383.182 30.7834C383.182 32.8795 384.994 34.5787 387.23 34.5787Z" fill="#EAEDF3"/>
<path d="M404.77 30.7834C404.77 33.7353 402.072 35.8437 399.373 35.8437C396.675 35.8437 393.977 33.3136 393.977 30.7834C393.977 28.2533 396.675 25.7231 399.373 25.7231C402.072 25.7231 404.77 28.2533 404.77 30.7834Z" fill="#EAEDF3"/>
<path d="M1028.12 32.4702H677.765C677.765 32.4702 675.966 31.6268 675.966 30.7834C675.966 29.9401 676.865 29.0967 677.765 29.0967H1028.12C1028.12 29.0967 1029.91 29.9401 1029.91 30.7834C1029.91 31.6268 1029.02 32.4702 1028.12 32.4702Z" fill="#EAEDF3"/>
<path d="M672.368 30.7834C672.368 30.7834 670.569 34.5787 668.32 34.5787C666.071 34.5787 664.272 32.8919 664.272 30.7834C664.272 28.675 666.071 26.9882 668.32 26.9882C670.569 26.9882 672.368 28.675 672.368 30.7834Z" fill="#EAEDF3"/>
<path d="M661.574 30.7834C661.574 33.7353 658.876 35.8437 656.177 35.8437C653.479 35.8437 650.78 33.3136 650.78 30.7834C650.78 28.2533 653.479 25.7231 656.177 25.7231C658.876 25.7231 661.574 28.2533 661.574 30.7834Z" fill="#EAEDF3"/>
<path d="M1042.06 30.7834C1042.06 30.7834 1040.26 34.5787 1038.01 34.5787C1035.76 34.5787 1033.96 32.8919 1033.96 30.7834C1033.96 28.675 1035.76 26.9882 1038.01 26.9882C1040.26 26.9882 1042.06 28.675 1042.06 30.7834Z" fill="#EAEDF3"/>
<path d="M1056 30.7834C1056 33.7353 1053.3 35.8437 1050.6 35.8437C1047.9 35.8437 1045.21 33.3136 1045.21 30.7834C1045.21 28.2533 1047.9 25.7231 1050.6 25.7231C1053.3 25.7231 1056 28.2533 1056 30.7834Z" fill="#EAEDF3"/>
<path d="M531.598 55.2416C534.296 51.0247 536.995 47.2294 539.693 42.5908C544.191 40.0607 548.688 37.1088 553.186 35.0004C555.884 33.7353 558.133 32.0485 560.831 31.2052C558.133 29.9401 555.884 28.675 553.186 27.4099C548.688 24.8798 544.64 22.3496 539.693 19.8195C536.995 15.6026 533.847 11.3857 531.598 7.16875C530.249 4.63861 528.45 2.53015 527.55 0C526.201 2.53015 524.852 4.63861 523.502 7.16875C520.804 11.3857 518.106 15.1809 515.407 19.8195C510.91 22.3496 506.412 25.3015 501.915 27.4099C499.216 28.675 496.968 30.3618 494.269 31.2052C496.968 32.4702 499.216 33.7353 501.915 35.0004C506.412 37.5305 510.46 40.0607 515.407 42.5908C518.106 46.8077 521.254 51.0247 523.502 55.2416C524.852 57.7717 526.651 59.8802 527.55 62.4103C528.899 59.8802 530.249 57.7717 531.598 55.2416ZM507.761 30.7835C511.809 28.675 516.307 26.5666 520.354 24.0364C522.603 19.8195 524.852 16.0243 527.1 12.2291C529.349 16.0243 531.598 20.2412 533.847 24.0364C538.344 26.1449 542.392 28.2533 546.439 30.7835C542.392 32.8919 537.894 35.0004 533.847 37.1088C531.598 41.3258 529.349 45.121 527.1 48.9162C524.852 45.121 522.603 40.9041 520.354 37.1088C515.857 35.0004 511.809 32.4702 507.761 30.7835Z" fill="#EAEDF3"/>
<path d="M642.685 30.7835C642.685 30.7835 645.384 33.7353 645.833 35.4221C646.733 37.9522 645.833 40.4824 645.384 42.1691C643.585 45.5427 640.886 45.9644 640.886 45.9644C640.886 45.9644 643.135 45.121 644.034 41.7474C644.034 40.0607 644.034 37.9522 643.585 36.2655C642.685 34.157 640.436 32.8919 638.188 32.0485C635.489 31.2052 632.341 31.6269 629.193 32.4702C626.045 33.7353 623.346 35.4221 620.648 37.9522C617.949 40.4824 615.251 43.4342 611.653 46.386C608.505 49.3379 604.007 52.2897 599.06 53.5548C594.113 54.8199 588.266 54.3982 583.769 51.4463C579.721 48.4945 577.472 44.2776 577.922 40.0607C577.922 37.9522 578.821 35.8438 580.171 34.5787C581.52 33.3136 582.869 32.0485 584.218 31.6269C587.367 30.3618 590.065 30.3618 592.314 31.2052C596.811 32.8919 598.61 35.8438 599.06 37.5305C599.959 39.2173 599.959 40.0607 599.959 40.0607C599.959 40.0607 599.51 39.2173 598.161 37.9522C596.811 36.6871 594.563 35.0004 591.414 34.5787C590.065 34.5787 588.266 34.5787 586.467 35.8438C585.118 36.6871 583.769 38.3739 584.218 40.0607C584.218 41.7474 585.568 44.2776 587.816 45.5427C589.615 46.8077 593.213 47.2294 596.811 46.386C604.007 44.6993 609.404 37.9522 616.15 32.8919C617.5 32.0485 618.849 31.2052 620.198 30.3618C618.849 29.5184 617.5 28.675 616.15 27.8316C609.404 22.7713 604.007 16.446 596.811 14.3375C593.213 13.4941 590.065 13.9158 587.816 15.1809C585.568 16.446 584.218 18.5544 584.218 20.6629C584.218 22.3496 585.118 24.0364 586.467 24.8798C587.816 25.7232 589.615 26.1449 591.414 26.1449C594.563 26.1449 596.811 24.0364 598.161 22.7713C599.51 21.5063 599.959 20.6629 599.959 20.6629C599.959 20.6629 599.959 21.5063 599.06 23.193C598.16 24.8798 596.811 27.8316 592.314 29.0967C590.065 29.9401 586.917 29.9401 584.218 28.675C582.869 28.2533 581.07 26.9882 580.171 25.7232C578.821 24.4581 577.922 22.3496 577.922 20.2412C577.922 16.0243 579.721 11.8074 583.769 8.85552C588.266 5.90368 593.663 5.48199 599.06 6.74706C604.457 8.01214 608.505 10.964 611.653 13.9158C614.801 16.8677 617.949 19.8195 620.648 22.3496C623.346 24.8798 626.494 26.9882 629.193 27.8316C632.341 29.0967 635.489 29.0967 638.188 28.2533C640.886 27.4099 642.685 26.1449 643.585 24.0364C644.484 21.928 644.484 19.8195 644.034 18.5544C643.135 15.1809 640.886 14.3375 640.886 14.3375C640.886 14.3375 643.135 14.3375 645.384 18.1327C646.283 19.8195 646.733 22.3496 645.833 24.8798C645.833 26.5666 644.484 28.2533 642.685 29.5184V30.7835Z" fill="#EAEDF3"/>
<path d="M412.416 30.7835C412.416 30.7835 409.717 27.8316 409.268 26.1449C408.368 23.6147 409.268 21.0846 409.717 19.3978C411.516 16.0243 414.215 15.6026 414.215 15.6026C414.215 15.6026 411.966 16.446 411.067 19.8195C411.067 21.5063 411.067 23.6147 411.516 25.3015C412.416 27.4099 414.665 28.675 416.913 29.5184C419.612 30.3618 422.76 29.9401 425.908 29.0967C429.056 27.8316 431.755 26.1449 434.453 23.6147C437.152 21.0846 439.85 18.1327 443.448 15.1809C446.596 12.2291 451.094 9.27721 456.041 8.01214C460.988 6.74707 466.835 7.16876 471.332 10.1206C475.38 13.0724 477.629 17.2893 477.179 21.5063C477.179 23.6147 476.28 25.7232 474.93 26.9882C473.581 28.2533 472.232 29.5184 470.883 29.9401C467.734 31.2052 465.036 31.2052 462.787 30.3618C458.29 28.675 456.491 25.7232 456.041 24.4581C455.142 22.7713 455.142 21.928 455.142 21.928C455.142 21.928 455.591 22.7713 456.941 24.0364C458.29 25.3015 460.538 26.9883 463.687 27.4099C465.036 27.4099 466.835 27.4099 468.634 26.1449C469.983 25.3015 471.332 23.6147 470.883 21.928C470.883 20.2412 469.533 17.711 467.285 16.446C465.036 15.1809 461.888 14.7592 458.29 15.6026C451.094 17.2893 445.697 24.0364 438.951 29.0967C437.602 29.9401 436.252 30.7835 434.903 31.6269C436.252 32.4702 437.602 33.3136 438.951 34.157C445.697 39.2173 451.094 45.5427 458.29 47.6511C461.888 48.4945 465.036 48.0728 467.285 46.8077C469.533 45.5427 470.883 43.4342 470.883 41.3258C470.883 39.639 469.983 37.9522 468.634 37.1088C467.285 36.2655 465.486 35.8438 463.687 35.8438C460.538 35.8438 458.29 37.9522 456.941 39.2173C455.591 40.4824 455.142 41.3258 455.142 41.3258C455.142 41.3258 455.142 40.4824 456.041 38.7956C456.941 37.1088 458.29 34.157 462.787 32.4702C465.036 31.6269 468.184 31.6269 470.883 32.8919C472.232 33.3136 474.031 34.5787 474.93 35.8438C475.83 37.1088 477.179 39.2173 477.179 41.3258C477.179 45.5427 475.38 49.7596 471.332 52.7114C466.835 55.6633 461.438 56.0849 456.041 54.8199C450.644 53.5548 446.596 50.603 443.448 47.6511C440.3 44.6993 437.152 41.7474 434.453 39.2173C431.755 36.6871 428.607 34.5787 425.908 33.7353C422.76 32.4702 419.612 32.4702 416.913 33.3136C414.215 34.157 412.416 35.4221 411.516 37.5305C410.617 39.639 410.617 41.7474 411.067 43.0125C411.966 46.386 414.215 47.2294 414.215 47.2294C414.215 47.2294 411.516 47.2294 409.717 43.4342C408.818 41.7474 408.368 39.2173 409.268 36.6871C409.268 35.0004 410.617 33.3136 412.416 32.0485V30.7835Z" fill="#EAEDF3"/>
<path d="M577.023 30.7835C577.023 30.7835 573.425 32.8919 572.075 34.157C568.028 37.5305 565.329 41.3257 563.98 42.5908C560.832 45.5427 555.435 47.6511 553.636 45.9643C551.837 44.2776 553.636 39.2173 557.684 35.8438C559.033 34.5787 563.08 32.4702 567.578 30.7835C563.08 29.0967 559.033 26.9882 557.684 25.7232C554.086 22.3496 551.837 17.2893 553.636 15.6026C555.435 13.9158 560.832 16.0243 563.98 18.9761C565.779 20.2412 568.477 24.0364 572.075 27.4099C573.425 28.675 575.224 29.9401 577.023 30.7835Z" fill="#EAEDF3"/>
<path d="M478.078 30.7835C478.078 30.7835 481.676 28.675 483.025 27.4099C487.073 24.0364 489.771 20.2412 491.121 18.9761C494.269 16.0243 499.666 13.9158 501.465 15.6026C503.264 17.2893 501.465 22.3496 497.417 25.7232C496.068 26.9882 492.02 29.0967 487.523 30.7835C492.02 32.4702 496.068 34.5787 497.417 35.8438C501.015 39.2173 503.264 44.2776 501.465 45.9643C499.666 47.6511 494.269 45.5427 491.121 42.5908C489.322 41.3257 486.623 37.5305 483.025 34.157C481.676 32.8919 479.877 31.6268 478.078 30.7835Z" fill="#EAEDF3"/>
<path d="M513.608 43.8559C514.958 46.8077 517.206 51.4463 518.555 53.1331C517.206 51.0246 513.159 48.0728 510.91 45.9643C508.661 43.8559 505.513 40.4824 503.264 38.7956C505.063 40.0607 510.46 42.1691 513.159 43.4342L513.608 43.8559Z" fill="#EAEDF3"/>
<path d="M541.492 43.8559C544.64 42.5908 549.588 40.4824 551.387 39.2173C549.138 40.4824 545.99 44.2776 543.741 46.386C541.492 48.4945 537.894 51.4463 536.095 53.5548C537.444 51.868 539.693 46.8077 541.042 44.2776L541.492 43.8559Z" fill="#EAEDF3"/>
<path d="M541.492 17.711C540.143 14.7592 537.894 10.1206 536.545 8.43384C537.894 10.5423 541.942 13.4941 544.191 15.6026C546.439 17.711 549.588 21.0846 551.836 22.7713C550.037 21.5063 544.64 19.3978 541.942 18.1327L541.492 17.711Z" fill="#EAEDF3"/>
<path d="M513.608 17.711C510.46 18.9761 505.513 21.0846 503.714 22.3497C505.963 21.0846 509.111 17.2894 511.36 15.1809C513.608 13.0724 517.206 10.1206 519.005 8.01215C517.656 9.69891 515.407 14.7592 514.058 17.2894L513.608 17.711Z" fill="#EAEDF3"/>
<path d="M484.824 15.6026C484.824 15.6026 486.623 18.1327 485.724 20.2412C485.724 21.0846 483.925 23.193 482.126 24.8798C480.327 26.5666 478.078 27.8316 476.729 28.675C478.078 27.8316 479.427 25.7232 480.327 23.6147C481.226 21.5063 481.676 19.8195 482.126 18.9761C482.576 17.2894 483.925 15.6026 484.824 15.6026Z" fill="#EAEDF3"/>
<path d="M570.726 46.3861C570.726 46.3861 568.927 43.8559 569.827 41.7475C569.827 40.9041 571.626 38.7956 573.425 37.1089C575.223 35.4221 577.472 34.157 578.821 33.3137C577.472 34.157 576.123 36.2655 575.223 38.374C574.324 40.4824 573.874 42.1692 573.425 43.0126C572.975 44.6993 571.626 46.3861 570.726 46.3861Z" fill="#EAEDF3"/>
<path d="M484.824 46.3861C484.824 46.3861 486.623 43.8559 485.724 41.7475C485.724 40.9041 483.925 38.7956 482.126 37.1089C480.327 35.4221 478.078 34.157 476.729 33.3137C478.078 34.157 479.427 36.2655 480.327 38.374C481.226 40.4824 481.676 42.1692 482.126 43.0126C482.576 44.6993 483.925 46.3861 484.824 46.3861Z" fill="#EAEDF3"/>
<path d="M570.726 15.6026C570.726 15.6026 568.927 18.1327 569.827 20.2412C569.827 21.0846 571.626 23.193 573.425 24.8798C575.223 26.5666 577.472 27.8316 578.821 28.675C577.472 27.8316 576.123 25.7232 575.223 23.6147C574.324 21.5063 573.874 19.8195 573.425 18.9761C572.975 17.2894 571.626 15.6026 570.726 15.6026Z" fill="#EAEDF3"/>
</svg>
