<svg width="54" height="54" viewBox="0 0 54 54" fill="none" xmlns="http://www.w3.org/2000/svg">
<path d="M11.25 6.75V5C10.2835 5 9.5 5.7835 9.5 6.75H11.25ZM42.75 47.25V49C43.7165 49 44.5 48.2165 44.5 47.25H42.75ZM11.25 47.25H9.5C9.5 48.2165 10.2835 49 11.25 49V47.25ZM31.5 6.75L32.7374 5.51256C32.4093 5.18437 31.9641 5 31.5 5V6.75ZM42.75 18H44.5C44.5 17.5359 44.3156 17.0908 43.9874 16.7626L42.75 18ZM18 36.5C17.0335 36.5 16.25 37.2835 16.25 38.25C16.25 39.2165 17.0335 40 18 40V36.5ZM36 40C36.9665 40 37.75 39.2165 37.75 38.25C37.75 37.2835 36.9665 36.5 36 36.5V40ZM18 27.5C17.0335 27.5 16.25 28.2835 16.25 29.25C16.25 30.2165 17.0335 31 18 31V27.5ZM31.5 31C32.4665 31 33.25 30.2165 33.25 29.25C33.25 28.2835 32.4665 27.5 31.5 27.5V31ZM42.75 45.5H11.25V49H42.75V45.5ZM13 47.25V6.75H9.5V47.25H13ZM11.25 8.5H31.5V5H11.25V8.5ZM41 18V47.25H44.5V18H41ZM30.2626 7.98744L41.5126 19.2374L43.9874 16.7626L32.7374 5.51256L30.2626 7.98744ZM27.5 6.75V15.75H31V6.75H27.5ZM33.75 22H42.75V18.5H33.75V22ZM27.5 15.75C27.5 19.2018 30.2982 22 33.75 22V18.5C32.2312 18.5 31 17.2688 31 15.75H27.5ZM18 40H36V36.5H18V40ZM18 31H31.5V27.5H18V31Z" fill="#101010"/>
</svg>
