<svg width="50" height="50" viewBox="0 0 50 50" fill="none" xmlns="http://www.w3.org/2000/svg">
<g clip-path="url(#clip0_27_134)">
<path d="M41.5375 16.6665H43.75C44.8551 16.6665 45.9149 17.1055 46.6963 17.8869C47.4777 18.6683 47.9167 19.7281 47.9167 20.8332V29.1665C47.9167 30.2716 47.4777 31.3314 46.6963 32.1128C45.9149 32.8942 44.8551 33.3332 43.75 33.3332H41.5375C41.0296 37.3609 39.0693 41.0648 36.0245 43.7499C32.9797 46.4349 29.0596 47.9165 25 47.9165V43.7499C28.3152 43.7499 31.4947 42.4329 33.8389 40.0887C36.1831 37.7445 37.5 34.5651 37.5 31.2499V18.7499C37.5 15.4347 36.1831 12.2552 33.8389 9.91104C31.4947 7.56683 28.3152 6.24987 25 6.24987C21.6848 6.24987 18.5054 7.56683 16.1612 9.91104C13.817 12.2552 12.5 15.4347 12.5 18.7499V33.3332H6.25001C5.14494 33.3332 4.08513 32.8942 3.30373 32.1128C2.52233 31.3314 2.08334 30.2716 2.08334 29.1665V20.8332C2.08334 19.7281 2.52233 18.6683 3.30373 17.8869C4.08513 17.1055 5.14494 16.6665 6.25001 16.6665H8.46251C8.97091 12.6392 10.9314 8.93586 13.9762 6.25128C17.021 3.5667 20.9408 2.08545 25 2.08545C29.0593 2.08545 32.979 3.5667 36.0238 6.25128C39.0686 8.93586 41.0291 12.6392 41.5375 16.6665ZM6.25001 20.8332V29.1665H8.33335V20.8332H6.25001ZM41.6667 20.8332V29.1665H43.75V20.8332H41.6667ZM16.1667 32.8853L18.375 29.352C20.3606 30.5958 22.657 31.2537 25 31.2499C27.343 31.2537 29.6394 30.5958 31.625 29.352L33.8334 32.8853C31.186 34.5439 28.1241 35.4213 25 35.4165C21.876 35.4213 18.8141 34.5439 16.1667 32.8853Z" fill="#101010"/>
</g>
<defs>
<clipPath id="clip0_27_134">
<rect width="50" height="50" fill="white"/>
</clipPath>
</defs>
</svg>
